<svg width="20" height="19.17" viewBox="0 0 20 19.17" xmlns="http://www.w3.org/2000/svg" fill="currentColor"><path d="M10,.42A9.92,9.92,0,0,0,0,10.25a9.85,9.85,0,0,0,6.84,9.32c.5.09.68-.21.68-.47s0-.85,0-1.67c-2.78.59-3.37-1.32-3.37-1.32A2.58,2.58,0,0,0,3,14.67c-.91-.61.07-.6.07-.6a2.1,2.1,0,0,1,1.53,1,2.14,2.14,0,0,0,2.91.81,2.08,2.08,0,0,1,.64-1.31C6,14.34,3.62,13.5,3.62,9.73a3.75,3.75,0,0,1,1-2.63,3.44,3.44,0,0,1,.09-2.6s.83-.27,2.75,1A10.39,10.39,0,0,1,10,5.17a10.39,10.39,0,0,1,2.5.33c1.9-1.27,2.73-1,2.73-1a3.52,3.52,0,0,1,.1,2.6,3.75,3.75,0,0,1,1,2.63c0,3.78-2.34,4.61-4.56,4.85a2.35,2.35,0,0,1,.67,1.82c0,1.32,0,2.37,0,2.69s.17.57.69.47A9.82,9.82,0,0,0,20,10.25,9.92,9.92,0,0,0,10,.42Z" transform="translate(0 -0.42)" /></svg>
